Coordinates
version=1
nRows=32
nColumns=22
inDegrees=yes

Units are S.I. units (second, meters, Newtons, ...)
If the header above contains a line with 'inDegrees', this indicates whether rotational values are in degrees (yes) or radians (no).

endheader
time	pelvis_tilt	pelvis_list	pelvis_rotation	pelvis_tx	pelvis_ty	pelvis_tz	hip_flexion_r	hip_adduction_r	hip_rotation_r	knee_angle_r	ankle_angle_r	subtalar_angle_r	hip_flexion_l	hip_adduction_l	hip_rotation_l	knee_angle_l	ankle_angle_l	subtalar_angle_l	lumbar_extension	lumbar_bending	lumbar_rotation
      0.01000000	      2.79883721	      3.04571680	    166.19370611	      0.14138266	      1.01668226	      0.98649140	      3.67563798	     -0.38539454	     -3.27105084	    -13.73289686	      9.17845724	      1.25679720	     -1.30529362	     -5.77019180	    -13.42816247	     -9.62737065	     12.50355805	      1.58232385	     -3.01364383	     -1.13243542	     -0.91531552
      0.02000000	      2.71494681	      2.98052291	    166.12550245	      0.14146433	      1.01677994	      0.98639313	      3.73546310	     -0.47375704	     -3.20931915	    -13.95756742	      9.24169783	      1.25648094	     -1.34854337	     -5.68707692	    -13.45241700	     -9.70547551	     12.49633363	      1.58378293	     -3.15162787	     -1.23545999	     -0.88896704
      0.03000000	      2.66391768	      2.94694392	    166.07394957	      0.14180010	      1.01673121	      0.98627797	      3.86157346	     -0.51323327	     -3.12372438	    -14.23726240	      9.33531254	      1.23990265	     -1.31457185	     -5.65968426	    -13.48703868	     -9.84023229	     12.53326343	      1.58329622	     -3.27521141	     -1.29307594	     -0.90681767
      0.04000000	      2.65090923	      2.90960509	    166.06338544	      0.14204085	      1.01661673	      0.98629020	      4.02449410	     -0.55762508	     -3.10393704	    -14.52117706	      9.40628097	      1.20296349	     -1.21841249	     -5.63478875	    -13.50180820	     -9.99977715	     12.59958368	      1.56596185	     -3.34578132	     -1.33853288	     -0.93660764
      0.05000000	      2.61547702	      2.89766245	    166.10648208	      0.14203853	      1.01658263	      0.98644672	      4.12024094	     -0.59268242	     -3.15769060	    -14.76161842	      9.45186065	      1.17299580	     -1.16401246	     -5.61830382	    -13.43814467	    -10.14410466	     12.64028022	      1.54992518	     -3.42744011	     -1.35416009	     -0.97496705
      0.06000000	      2.55071745	      2.93139744	    166.16894319	      0.14190781	      1.01663427	      0.98657847	      4.15847303	     -0.58155117	     -3.19199581	    -14.99456831	      9.50425077	      1.16230006	     -1.16825692	     -5.64030435	    -13.34135185	    -10.26750001	     12.66764633	      1.55163615	     -3.53230351	     -1.32585290	     -1.04784992
      0.07000000	      2.44975435	      2.99390870	    166.19749759	      0.14181780	      1.01676119	      0.98654903	      4.16346792	     -0.53694566	     -3.18330416	    -15.24082539	      9.53121880	      1.15615674	     -1.22507971	     -5.69198854	    -13.29072677	    -10.38849379	     12.70498094	      1.55840320	     -3.68316875	     -1.28925073	     -1.08283748
      0.08000000	      2.35179157	      3.02088692	    166.18670709	      0.14179794	      1.01683345	      0.98643334	      4.21394538	     -0.52421735	     -3.12862488	    -15.53564579	      9.56126467	      1.13251491	     -1.27723490	     -5.71093831	    -13.28509648	    -10.50665285	     12.75344164	      1.56285114	     -3.83166789	     -1.29274593	     -1.08716656
      0.09000000	      2.28643028	      2.97760282	    166.13977511	      0.14182104	      1.01677483	      0.98629951	      4.37132291	     -0.58104662	     -3.04632537	    -15.92466699	      9.66008218	      1.07639565	     -1.28755935	     -5.66293989	    -13.32680972	    -10.61426240	     12.80229209	      1.55243539	     -3.92418478	     -1.36286580	     -1.07191600
      0.10000000	      2.24808529	      2.91478110	    166.09681275	      0.14183378	      1.01665603	      0.98619638	      4.57337985	     -0.65635942	     -2.97398231	    -16.33780505	      9.77156366	      1.03458606	     -1.26550482	     -5.59954114	    -13.34599025	    -10.72024481	     12.83042303	      1.49489450	     -3.97335668	     -1.44761004	     -1.05230306
      0.11000000	      2.21054463	      2.86312682	    166.06293791	      0.14179340	      1.01654753	      0.98610756	      4.72315567	     -0.71422159	     -2.89739697	    -16.66742231	      9.87168928	      1.00330747	     -1.25185184	     -5.54638332	    -13.35592985	    -10.81753069	     12.86575778	      1.43416494	     -4.01574281	     -1.51652288	     -1.04849850
      0.12000000	      2.15829836	      2.82808975	    166.03666789	      0.14172907	      1.01646683	      0.98602802	      4.81813012	     -0.75654834	     -2.84484818	    -16.93402301	      9.95540474	      0.96745861	     -1.26032347	     -5.50542492	    -13.36194921	    -10.91009558	     12.90255634	      1.41697432	     -4.07550851	     -1.56990229	     -1.04060032
      0.13000000	      2.12336739	      2.75367544	    165.99688322	      0.14163463	      1.01634255	      0.98592595	      4.95697284	     -0.83792792	     -2.77038114	    -17.23156675	     10.05650037	      0.90650847	     -1.26424291	     -5.42492245	    -13.41322485	    -10.96077123	     12.92352181	      1.36927109	     -4.09119089	     -1.65961831	     -1.04687900
      0.14000000	      2.05459703	      2.70289903	    165.97564139	      0.14147431	      1.01626220	      0.98584482	      5.04104270	     -0.90736489	     -2.72187343	    -17.51349591	     10.13719433	      0.87754952	     -1.32145160	     -5.35837021	    -13.43909279	    -10.99247602	     12.97033877	      1.35625643	     -4.14131679	     -1.72960813	     -1.06142024
      0.15000000	      1.98247922	      2.65370562	    165.96107948	      0.14124782	      1.01619158	      0.98576277	      5.10227972	     -0.97266746	     -2.64569793	    -17.77492332	     10.23927189	      0.85983581	     -1.40047415	     -5.28573658	    -13.44068530	    -10.99417792	     12.97224282	      1.39944161	     -4.18018548	     -1.79774225	     -1.07556459
      0.16000000	      1.90699375	      2.62530132	    165.96073534	      0.14096599	      1.01613743	      0.98568916	      5.12769028	     -1.01366138	     -2.55725539	    -17.99698886	     10.34149218	      0.84008868	     -1.48725259	     -5.23709988	    -13.43668437	    -11.00512613	     12.99802615	      1.40751235	     -4.21859659	     -1.84355141	     -1.09448544
      0.17000000	      1.82400297	      2.57405561	    165.95778693	      0.14064548	      1.01609222	      0.98562192	      5.13129498	     -1.08200625	     -2.47793874	    -18.18277867	     10.44639044	      0.83033806	     -1.59363127	     -5.16080031	    -13.47403391	    -10.98266146	     13.02925473	      1.35439637	     -4.25024560	     -1.91360536	     -1.13008728
      0.18000000	      1.75858508	      2.54933373	    165.97167223	      0.14039589	      1.01603218	      0.98555907	      5.14556366	     -1.12331227	     -2.46229860	    -18.35709791	     10.51347114	      0.82328180	     -1.66926258	     -5.12056772	    -13.46769130	    -10.98509974	     13.07999055	      1.31806743	     -4.27840618	     -1.95642263	     -1.15949499
      0.19000000	      1.70006071	      2.52416978	    165.99801865	      0.14012866	      1.01597099	      0.98551191	      5.15759778	     -1.16874408	     -2.48813611	    -18.51480191	     10.57508909	      0.80600883	     -1.74348653	     -5.07758541	    -13.44149661	    -10.97188061	     13.08832506	      1.31508280	     -4.29605199	     -1.99657842	     -1.21242268
      0.20000000	      1.66342201	      2.52278861	    166.02674570	      0.13982555	      1.01590171	      0.98546367	      5.17329339	     -1.17863443	     -2.47506546	    -18.65210334	     10.58606073	      0.79129285	     -1.80257717	     -5.06601429	    -13.42752112	    -10.95851051	     13.08783579	      1.32775509	     -4.28956551	     -1.99773420	     -1.28034138
      0.21000000	      1.57985527	      2.46008120	    166.07827083	      0.13947284	      1.01586048	      0.98548487	      5.16099579	     -1.27474397	     -2.53388871	    -18.81204946	     10.69731266	      0.71881171	     -1.89816931	     -4.97229211	    -13.35532538	    -10.93547654	     13.09948712	      1.37862629	     -4.31627976	     -2.08397270	     -1.33836345
      0.22000000	      1.51757632	      2.42066311	    166.11815896	      0.13912382	      1.01582464	      0.98549571	      5.14157115	     -1.33212405	     -2.52972077	    -18.92691891	     10.75774318	      0.65554136	     -1.98104269	     -4.91079089	    -13.33109165	    -10.90793135	     13.10296147	      1.39898572	     -4.32495909	     -2.13246876	     -1.40418635
      0.23000000	      1.47036320	      2.40140203	    166.14678137	      0.13883076	      1.01577233	      0.98549852	      5.12839836	     -1.36330612	     -2.52140827	    -19.02568888	     10.81362885	      0.62295840	     -2.03917442	     -4.87777148	    -13.30751559	    -10.91035441	     13.13787319	      1.39654309	     -4.32621692	     -2.15774731	     -1.44096491
      0.24000000	      1.44367649	      2.39754410	    166.16984765	      0.13853909	      1.01571976	      0.98548996	      5.11689068	     -1.37155552	     -2.50306711	    -19.09446238	     10.82547666	      0.61373455	     -2.07743964	     -4.86682751	    -13.29929780	    -10.91608394	     13.15140635	      1.39656577	     -4.30646978	     -2.15998396	     -1.47723875
      0.25000000	      1.39591503	      2.38018288	    166.19898096	      0.13821783	      1.01569956	      0.98549715	      5.06527297	     -1.40163116	     -2.49489246	    -19.13092284	     10.88418183	      0.58337099	     -2.12879700	     -4.83438920	    -13.25919814	    -10.93326005	     13.18854687	      1.39404489	     -4.30965785	     -2.18279891	     -1.50053662
      0.26000000	      1.37230088	      2.37985476	    166.21952732	      0.13791084	      1.01567613	      0.98547027	      5.02692108	     -1.40368102	     -2.46573465	    -19.14819041	     10.90374365	      0.56972554	     -2.15577245	     -4.82922335	    -13.24500815	    -10.95642016	     13.19431485	      1.39029812	     -4.29145388	     -2.18005047	     -1.53135293
      0.27000000	      1.33207384	      2.39078536	    166.25638494	      0.13755530	      1.01568002	      0.98547530	      4.95095131	     -1.40588912	     -2.48835209	    -19.13979602	     10.93599639	      0.53990000	     -2.20556651	     -4.83072116	    -13.20445867	    -10.97636235	     13.21851163	      1.37738880	     -4.29483137	     -2.16485878	     -1.56690326
      0.28000000	      1.30951375	      2.40017358	    166.28625470	      0.13721869	      1.01567020	      0.98545795	      4.89043017	     -1.40295415	     -2.50073124	    -19.12114482	     10.94363279	      0.52733008	     -2.22796897	     -4.83780014	    -13.17073558	    -11.01393529	     13.23704981	      1.37544573	     -4.27754384	     -2.15017239	     -1.59387837
      0.29000000	      1.29063373	      2.41082993	    166.30735068	      0.13692318	      1.01565637	      0.98543127	      4.83507023	     -1.39795020	     -2.51087394	    -19.09827030	     10.95856996	      0.52420761	     -2.23934527	     -4.84842886	    -13.14093117	    -11.06459577	     13.26689248	      1.37520916	     -4.25807518	     -2.13511239	     -1.60391664
      0.30000000	      1.27222569	      2.42789489	    166.32934279	      0.13665034	      1.01565285	      0.98541887	      4.77681637	     -1.38816580	     -2.53197070	    -19.06943425	     10.97445777	      0.51921063	     -2.24521220	     -4.86556666	    -13.10739942	    -11.12408029	     13.30094132	      1.37115409	     -4.24181264	     -2.11152445	     -1.61473819
      0.31000000	      1.25285772	      2.45254690	    166.35490977	      0.13638288	      1.01566919	      0.98541903	      4.71171466	     -1.37137481	     -2.56701772	    -19.03361517	     10.97913346	      0.51712186	     -2.25006045	     -4.88939604	    -13.06709203	    -11.18798516	     13.32847932	      1.36540228	     -4.22946579	     -2.07850950	     -1.62831831
      0.32000000	      1.22864730	      2.48180178	    166.38052348	      0.13609919	      1.01570157	      0.98542141	      4.63291077	     -1.35283754	     -2.61206603	    -18.98315896	     10.97459024	      0.52417982	     -2.26116627	     -4.91731798	    -13.04159130	    -11.25076892	     13.35418138	      1.35934625	     -4.22205831	     -2.03962164	     -1.63994367
